<?xml version="1.0" encoding="utf-8"?>
<svg version="1.1" xmlns:xlink="http://www.w3.org/1999/xlink" width="12px" height="12px" xmlns="http://www.w3.org/2000/svg">
  <g transform="matrix(1 0 0 1 -24 1 )">
    <path d="M 30 -1  C 33.36 -1  36 1.64  36 5  C 36 8.36  33.36 11  30 11  C 26.64 11  24 8.36  24 5  C 24 1.64  26.64 -1  30 -1  Z " fill-rule="nonzero" fill="#ffffff" stroke="none" />
    <path d="M 30 -0.5  C 33.08 -0.5  35.5 1.92  35.5 5  C 35.5 8.08  33.08 10.5  30 10.5  C 26.92 10.5  24.5 8.08  24.5 5  C 24.5 1.92  26.92 -0.5  30 -0.5  Z " stroke-width="1" stroke="#797979" fill="none" />
  </g>
</svg>