<?xml version="1.0" encoding="utf-8"?>
<svg version="1.1" xmlns:xlink="http://www.w3.org/1999/xlink" width="16px" height="16px" xmlns="http://www.w3.org/2000/svg">
  <g transform="matrix(1 0 0 1 -98 -10 )">
    <path d="M 106 10  C 110.48 10  114 13.52  114 18  C 114 22.48  110.48 26  106 26  C 101.52 26  98 22.48  98 18  C 98 13.52  101.52 10  106 10  Z " fill-rule="nonzero" fill="#ffffff" stroke="none" />
    <path d="M 106 10.5  C 110.2 10.5  113.5 13.8  113.5 18  C 113.5 22.2  110.2 25.5  106 25.5  C 101.8 25.5  98.5 22.2  98.5 18  C 98.5 13.8  101.8 10.5  106 10.5  Z " stroke-width="1" stroke="#797979" fill="none" />
  </g>
</svg>